<?xml version="1.0" encoding="UTF-8" standalone="no"?>
<!-- Created with Inkscape (http://www.inkscape.org/) -->
<svg
   xmlns:dc="http://purl.org/dc/elements/1.1/"
   xmlns:cc="http://creativecommons.org/ns#"
   xmlns:rdf="http://www.w3.org/1999/02/22-rdf-syntax-ns#"
   xmlns:svg="http://www.w3.org/2000/svg"
   xmlns="http://www.w3.org/2000/svg"
   xmlns:sodipodi="http://sodipodi.sourceforge.net/DTD/sodipodi-0.dtd"
   xmlns:inkscape="http://www.inkscape.org/namespaces/inkscape"
   width="400"
   height="400"
   id="svg2753"
   sodipodi:version="0.32"
   inkscape:version="0.46"
   version="1.0"
   sodipodi:docbase="/home/cris/trunk/themes/artistic/Beard"
   sodipodi:docname="stubble1.svg"
   inkscape:output_extension="org.inkscape.output.svg.inkscape">
  <defs
     id="defs2755" />
  <sodipodi:namedview
     id="base"
     pagecolor="#ffffff"
     bordercolor="#666666"
     borderopacity="1.0"
     gridtolerance="10000"
     guidetolerance="10"
     objecttolerance="10"
     inkscape:pageopacity="0.0"
     inkscape:pageshadow="2"
     inkscape:zoom="1.0175"
     inkscape:cx="200"
     inkscape:cy="202.04856"
     inkscape:document-units="px"
     inkscape:current-layer="svg2753"
     width="400px"
     height="400px"
     inkscape:window-width="872"
     inkscape:window-height="619"
     inkscape:window-x="302"
     inkscape:window-y="182" />
  <metadata
     id="metadata2758">
    <rdf:RDF>
      <cc:Work
         rdf:about="">
        <dc:format>image/svg+xml</dc:format>
        <dc:type
           rdf:resource="http://purl.org/dc/dcmitype/StillImage" />
      </cc:Work>
    </rdf:RDF>
  </metadata>
  <g
     id="g2464"
     transform="matrix(0.7568247,0,0,0.8971826,55.36811,44.148616)">
    <path
       id="path4746"
       style="fill:#000000;fill-opacity:1;stroke:none;stroke-width:0.81199998;stroke-linecap:round;stroke-linejoin:round;stroke-miterlimit:4;stroke-dashoffset:0;stroke-opacity:1"
       d="M 103.03347,268.14235 C 103.03371,268.98136 102.35363,269.66164 101.51462,269.66164 C 100.67561,269.66164 99.995532,268.98136 99.995778,268.14235 C 99.995532,267.30334 100.67561,266.62306 101.51462,266.62306 C 102.35363,266.62306 103.03371,267.30334 103.03347,268.14235 z M 112.74988,280.84842 C 112.75012,281.68743 112.07004,282.36771 111.23103,282.36771 C 110.39202,282.36771 109.71194,281.68743 109.71219,280.84842 C 109.71194,280.00941 110.39202,279.32913 111.23103,279.32913 C 112.07004,279.32913 112.75012,280.00941 112.74988,280.84842 z M 115.73954,262.91044 C 115.73978,263.74945 115.0597,264.42973 114.22069,264.42973 C 113.38168,264.42973 112.7016,263.74945 112.70185,262.91044 C 112.7016,262.07143 113.38168,261.39115 114.22069,261.39115 C 115.0597,261.39115 115.73978,262.07143 115.73954,262.91044 z M 97.054141,252.44662 C 97.054387,253.28563 96.374305,253.96591 95.535296,253.96591 C 94.696287,253.96591 94.016205,253.28563 94.016451,252.44662 C 94.016205,251.60761 94.696287,250.92733 95.535296,250.92733 C 96.374305,250.92733 97.054387,251.60761 97.054141,252.44662 z M 134.05123,292.43337 C 134.05147,293.27238 133.37139,293.95266 132.53238,293.95266 C 131.69337,293.95266 131.01329,293.27238 131.01354,292.43337 C 131.01329,291.59436 131.69337,290.91408 132.53238,290.91408 C 133.37139,290.91408 134.05147,291.59436 134.05123,292.43337 z M 131.80898,275.61651 C 131.80922,276.45552 131.12914,277.1358 130.29013,277.1358 C 129.45112,277.1358 128.77104,276.45552 128.77129,275.61651 C 128.77104,274.7775 129.45112,274.09722 130.29013,274.09722 C 131.12914,274.09722 131.80922,274.7775 131.80898,275.61651 z M 126.95078,247.58842 C 126.95102,248.42743 126.27094,249.10771 125.43193,249.10771 C 124.59292,249.10771 123.91284,248.42743 123.91309,247.58842 C 123.91284,246.74941 124.59292,246.06913 125.43193,246.06913 C 126.27094,246.06913 126.95102,246.74941 126.95078,247.58842 z M 152.36292,299.90753 C 152.36316,300.74654 151.68308,301.42682 150.84407,301.42682 C 150.00506,301.42682 149.32498,300.74654 149.32523,299.90753 C 149.32498,299.06852 150.00506,298.38824 150.84407,298.38824 C 151.68308,298.38824 152.36316,299.06852 152.36292,299.90753 z M 155.35258,318.59293 C 155.35282,319.43194 154.67274,320.11222 153.83373,320.11222 C 152.99472,320.11222 152.31464,319.43194 152.31489,318.59293 C 152.31464,317.75392 152.99472,317.07364 153.83373,317.07364 C 154.67274,317.07364 155.35282,317.75392 155.35258,318.59293 z M 179.6436,326.4408 C 179.64384,327.27981 178.96376,327.96009 178.12475,327.96009 C 177.28574,327.96009 176.60566,327.27981 176.60591,326.4408 C 176.60566,325.60179 177.28574,324.92151 178.12475,324.92151 C 178.96376,324.92151 179.64384,325.60179 179.6436,326.4408 z M 207.29798,329.05675 C 207.29822,329.89576 206.61814,330.57604 205.77913,330.57604 C 204.94012,330.57604 204.26004,329.89576 204.26029,329.05675 C 204.26004,328.21774 204.94012,327.53746 205.77913,327.53746 C 206.61814,327.53746 207.29822,328.21774 207.29798,329.05675 z M 175.53281,309.62394 C 175.53305,310.46295 174.85297,311.14323 174.01396,311.14323 C 173.17495,311.14323 172.49487,310.46295 172.49512,309.62394 C 172.49487,308.78493 173.17495,308.10465 174.01396,308.10465 C 174.85297,308.10465 175.53305,308.78493 175.53281,309.62394 z M 196.08675,315.60327 C 196.08699,316.44228 195.40691,317.12256 194.5679,317.12256 C 193.72889,317.12256 193.04881,316.44228 193.04906,315.60327 C 193.04881,314.76426 193.72889,314.08398 194.5679,314.08398 C 195.40691,314.08398 196.08699,314.76426 196.08675,315.60327 z M 219.25664,309.99765 C 219.25688,310.83666 218.5768,311.51694 217.73779,311.51694 C 216.89878,311.51694 216.2187,310.83666 216.21895,309.99765 C 216.2187,309.15864 216.89878,308.47836 217.73779,308.47836 C 218.5768,308.47836 219.25688,309.15864 219.25664,309.99765 z M 225.60967,323.45114 C 225.60991,324.29015 224.92983,324.97043 224.09082,324.97043 C 223.25181,324.97043 222.57173,324.29015 222.57198,323.45114 C 222.57173,322.61213 223.25181,321.93185 224.09082,321.93185 C 224.92983,321.93185 225.60991,322.61213 225.60967,323.45114 z M 231.589,295.42305 C 231.58924,296.26206 230.90916,296.94234 230.07015,296.94234 C 229.23114,296.94234 228.55106,296.26206 228.55131,295.42305 C 228.55106,294.58404 229.23114,293.90376 230.07015,293.90376 C 230.90916,293.90376 231.58924,294.58404 231.589,295.42305 z M 243.54765,316.7244 C 243.54789,317.56341 242.86781,318.24369 242.0288,318.24369 C 241.18979,318.24369 240.50971,317.56341 240.50996,316.7244 C 240.50971,315.88539 241.18979,315.20511 242.0288,315.20511 C 242.86781,315.20511 243.54789,315.88539 243.54765,316.7244 z M 254.75889,298.41271 C 254.75913,299.25172 254.07905,299.932 253.24004,299.932 C 252.40103,299.932 251.72095,299.25172 251.7212,298.41271 C 251.72095,297.5737 252.40103,296.89342 253.24004,296.89342 C 254.07905,296.89342 254.75913,297.5737 254.75889,298.41271 z M 252.14293,289.81743 C 252.14317,290.65644 251.46309,291.33672 250.62408,291.33672 C 249.78507,291.33672 249.10499,290.65644 249.10524,289.81743 C 249.10499,288.97842 249.78507,288.29814 250.62408,288.29814 C 251.46309,288.29814 252.14317,288.97842 252.14293,289.81743 z M 261.48563,304.39204 C 261.48587,305.23105 260.80579,305.91133 259.96678,305.91133 C 259.12777,305.91133 258.44769,305.23105 258.44794,304.39204 C 258.44769,303.55303 259.12777,302.87275 259.96678,302.87275 C 260.80579,302.87275 261.48587,303.55303 261.48563,304.39204 z M 268.21237,290.93856 C 268.21261,291.77757 267.53253,292.45785 266.69352,292.45785 C 265.85451,292.45785 265.17443,291.77757 265.17468,290.93856 C 265.17443,290.09955 265.85451,289.41927 266.69352,289.41927 C 267.53253,289.41927 268.21261,290.09955 268.21237,290.93856 z M 268.8103,279.95154 C 268.81054,280.79055 268.13046,281.47083 267.29145,281.47083 C 266.45244,281.47083 265.77236,280.79055 265.77261,279.95154 C 265.77236,279.11253 266.45244,278.43225 267.29145,278.43225 C 268.13046,278.43225 268.81054,279.11253 268.8103,279.95154 z M 291.00856,272.25316 C 291.0088,273.09217 290.32872,273.77245 289.48971,273.77245 C 288.6507,273.77245 287.97062,273.09217 287.97087,272.25316 C 287.97062,271.41415 288.6507,270.73387 289.48971,270.73387 C 290.32872,270.73387 291.0088,271.41415 291.00856,272.25316 z M 137.4146,306.63429 C 137.41484,307.4733 136.73476,308.15358 135.89575,308.15358 C 135.05674,308.15358 134.37666,307.4733 134.37691,306.63429 C 134.37666,305.79528 135.05674,305.115 135.89575,305.115 C 136.73476,305.115 137.41484,305.79528 137.4146,306.63429 z M 286.59882,261.63986 C 286.59906,262.47887 285.91898,263.15915 285.07997,263.15915 C 284.24096,263.15915 283.56088,262.47887 283.56113,261.63986 C 283.56088,260.80085 284.24096,260.12057 285.07997,260.12057 C 285.91898,260.12057 286.59906,260.80085 286.59882,261.63986 z M 276.80767,255.0626 C 276.80791,255.90161 276.12783,256.58189 275.28882,256.58189 C 274.44981,256.58189 273.76973,255.90161 273.76998,255.0626 C 273.76973,254.22359 274.44981,253.54331 275.28882,253.54331 C 276.12783,253.54331 276.80791,254.22359 276.80767,255.0626 z M 88.45887,263.28417 C 88.459116,264.12318 87.779034,264.80346 86.940025,264.80346 C 86.101016,264.80346 85.420934,264.12318 85.42118,263.28417 C 85.420934,262.44516 86.101016,261.76488 86.940025,261.76488 C 87.779034,261.76488 88.459116,262.44516 88.45887,263.28417 z M 110.13393,249.83068 C 110.13417,250.66969 109.45409,251.34997 108.61508,251.34997 C 107.77607,251.34997 107.09599,250.66969 107.09624,249.83068 C 107.09599,248.99167 107.77607,248.31139 108.61508,248.31139 C 109.45409,248.31139 110.13417,248.99167 110.13393,249.83068 z M 82.853249,248.70956 C 82.853495,249.54857 82.173413,250.22885 81.334404,250.22885 C 80.495395,250.22885 79.815313,249.54857 79.815559,248.70956 C 79.815313,247.87055 80.495395,247.19027 81.334404,247.19027 C 82.173413,247.19027 82.853495,247.87055 82.853249,248.70956 z M 190.48114,335.03609 C 190.48138,335.8751 189.8013,336.55538 188.96229,336.55538 C 188.12328,336.55538 187.4432,335.8751 187.44345,335.03609 C 187.4432,334.19708 188.12328,333.5168 188.96229,333.5168 C 189.8013,333.5168 190.48138,334.19708 190.48114,335.03609 z M 159.83709,310.74507 C 159.83733,311.58408 159.15725,312.26436 158.31824,312.26436 C 157.47923,312.26436 156.79915,311.58408 156.7994,310.74507 C 156.79915,309.90606 157.47923,309.22578 158.31824,309.22578 C 159.15725,309.22578 159.83733,309.90606 159.83709,310.74507 z M 166.19012,328.30934 C 166.19036,329.14835 165.51028,329.82863 164.67127,329.82863 C 163.83226,329.82863 163.15218,329.14835 163.15243,328.30934 C 163.15218,327.47033 163.83226,326.79005 164.67127,326.79005 C 165.51028,326.79005 166.19036,327.47033 166.19012,328.30934 z M 120.97146,293.18079 C 120.9717,294.0198 120.29162,294.70008 119.45261,294.70008 C 118.6136,294.70008 117.93352,294.0198 117.93377,293.18079 C 117.93352,292.34178 118.6136,291.6615 119.45261,291.6615 C 120.29162,291.6615 120.9717,292.34178 120.97146,293.18079 z M 117.35894,271.25658 C 117.35918,272.09559 116.6791,272.77587 115.84009,272.77587 C 115.00108,272.77587 114.321,272.09559 114.32125,271.25658 C 114.321,270.41757 115.00108,269.73729 115.84009,269.73729 C 116.6791,269.73729 117.35918,270.41757 117.35894,271.25658 z M 124.34671,283.98057 C 124.34695,284.81958 123.66687,285.49986 122.82786,285.49986 C 121.98885,285.49986 121.30877,284.81958 121.30902,283.98057 C 121.30877,283.14156 121.98885,282.46128 122.82786,282.46128 C 123.66687,282.46128 124.34695,283.14156 124.34671,283.98057 z M 100.46315,277.61857 C 100.46339,278.45758 99.783312,279.13786 98.944303,279.13786 C 98.105294,279.13786 97.425212,278.45758 97.425458,277.61857 C 97.425212,276.77956 98.105294,276.09928 98.944303,276.09928 C 99.783312,276.09928 100.46339,276.77956 100.46315,277.61857 z M 99.733078,258.94976 C 99.733324,259.78877 99.053242,260.46905 98.214233,260.46905 C 97.375224,260.46905 96.695142,259.78877 96.695388,258.94976 C 96.695142,258.11075 97.375224,257.43047 98.214233,257.43047 C 99.053242,257.43047 99.733324,258.11075 99.733078,258.94976 z M 84.506004,256.0295 C 84.50625,256.86851 83.826168,257.54879 82.987159,257.54879 C 82.14815,257.54879 81.468068,256.86851 81.468314,256.0295 C 81.468068,255.19049 82.14815,254.51021 82.987159,254.51021 C 83.826168,254.51021 84.50625,255.19049 84.506004,256.0295 z M 94.205441,271.77805 C 94.205687,272.61706 93.525605,273.29734 92.686596,273.29734 C 91.847587,273.29734 91.167505,272.61706 91.167751,271.77805 C 91.167505,270.93904 91.847587,270.25876 92.686596,270.25876 C 93.525605,270.25876 94.205687,270.93904 94.205441,271.77805 z M 121.63503,256.96816 C 121.63527,257.80717 120.95519,258.48745 120.11618,258.48745 C 119.27717,258.48745 118.59709,257.80717 118.59734,256.96816 C 118.59709,256.12915 119.27717,255.44887 120.11618,255.44887 C 120.95519,255.44887 121.63527,256.12915 121.63503,256.96816 z M 126.01542,269.06638 C 126.01566,269.90539 125.33558,270.58567 124.49657,270.58567 C 123.65756,270.58567 122.97748,269.90539 122.97773,269.06638 C 122.97748,268.22737 123.65756,267.54709 124.49657,267.54709 C 125.33558,267.54709 126.01566,268.22737 126.01542,269.06638 z M 145.31,274.9069 C 145.31024,275.74591 144.63016,276.42619 143.79115,276.42619 C 142.95214,276.42619 142.27206,275.74591 142.27231,274.9069 C 142.27206,274.06789 142.95214,273.38761 143.79115,273.38761 C 144.63016,273.38761 145.31024,274.06789 145.31,274.9069 z M 136.9664,283.3548 C 136.96664,284.19381 136.28656,284.87409 135.44755,284.87409 C 134.60854,284.87409 133.92846,284.19381 133.92871,283.3548 C 133.92846,282.51579 134.60854,281.83551 135.44755,281.83551 C 136.28656,281.83551 136.96664,282.51579 136.9664,283.3548 z M 151.5677,284.71064 C 151.56794,285.54965 150.88786,286.22993 150.04885,286.22993 C 149.20984,286.22993 148.52976,285.54965 148.53001,284.71064 C 148.52976,283.87163 149.20984,283.19135 150.04885,283.19135 C 150.88786,283.19135 151.56794,283.87163 151.5677,284.71064 z M 141.55538,293.68001 C 141.55562,294.51902 140.87554,295.1993 140.03653,295.1993 C 139.19752,295.1993 138.51744,294.51902 138.51769,293.68001 C 138.51744,292.841 139.19752,292.16072 140.03653,292.16072 C 140.87554,292.16072 141.55562,292.841 141.55538,293.68001 z M 141.55538,293.68001 C 141.55562,294.51902 140.87554,295.1993 140.03653,295.1993 C 139.19752,295.1993 138.51744,294.51902 138.51769,293.68001 C 138.51744,292.841 139.19752,292.16072 140.03653,292.16072 C 140.87554,292.16072 141.55562,292.841 141.55538,293.68001 z M 157.61681,291.6984 C 157.61705,292.53741 156.93697,293.21769 156.09796,293.21769 C 155.25895,293.21769 154.57887,292.53741 154.57912,291.6984 C 154.57887,290.85939 155.25895,290.17911 156.09796,290.17911 C 156.93697,290.17911 157.61705,290.85939 157.61681,291.6984 z M 147.91737,310.4715 C 147.91761,311.31051 147.23753,311.99079 146.39852,311.99079 C 145.55951,311.99079 144.87943,311.31051 144.87968,310.4715 C 144.87943,309.63249 145.55951,308.95221 146.39852,308.95221 C 147.23753,308.95221 147.91761,309.63249 147.91737,310.4715 z M 129.97863,300.66777 C 129.97887,301.50678 129.29879,302.18706 128.45978,302.18706 C 127.62077,302.18706 126.94069,301.50678 126.94094,300.66777 C 126.94069,299.82876 127.62077,299.14848 128.45978,299.14848 C 129.29879,299.14848 129.97887,299.82876 129.97863,300.66777 z M 142.91121,316.10343 C 142.91145,316.94244 142.23137,317.62272 141.39236,317.62272 C 140.55335,317.62272 139.87327,316.94244 139.87352,316.10343 C 139.87327,315.26442 140.55335,314.58414 141.39236,314.58414 C 142.23137,314.58414 142.91145,315.26442 142.91121,316.10343 z M 163.24874,302.44078 C 163.24898,303.27979 162.5689,303.96007 161.72989,303.96007 C 160.89088,303.96007 160.2108,303.27979 160.21105,302.44078 C 160.2108,301.60177 160.89088,300.92149 161.72989,300.92149 C 162.5689,300.92149 163.24898,301.60177 163.24874,302.44078 z M 167.83772,311.93163 C 167.83796,312.77064 167.15788,313.45092 166.31887,313.45092 C 165.47986,313.45092 164.79978,312.77064 164.80003,311.93163 C 164.79978,311.09262 165.47986,310.41234 166.31887,310.41234 C 167.15788,310.41234 167.83796,311.09262 167.83772,311.93163 z M 163.14444,321.94395 C 163.14468,322.78296 162.4646,323.46324 161.62559,323.46324 C 160.78658,323.46324 160.1065,322.78296 160.10675,321.94395 C 160.1065,321.10494 160.78658,320.42466 161.62559,320.42466 C 162.4646,320.42466 163.14468,321.10494 163.14444,321.94395 z M 172.73958,333.72929 C 172.73982,334.5683 172.05974,335.24858 171.22073,335.24858 C 170.38172,335.24858 169.70164,334.5683 169.70189,333.72929 C 169.70164,332.89028 170.38172,332.21 171.22073,332.21 C 172.05974,332.21 172.73982,332.89028 172.73958,333.72929 z M 182.12613,336.23237 C 182.12637,337.07138 181.44629,337.75166 180.60728,337.75166 C 179.76827,337.75166 179.08819,337.07138 179.08844,336.23237 C 179.08819,335.39336 179.76827,334.71308 180.60728,334.71308 C 181.44629,334.71308 182.12637,335.39336 182.12613,336.23237 z M 172.73958,326.32434 C 172.73982,327.16335 172.05974,327.84363 171.22073,327.84363 C 170.38172,327.84363 169.70164,327.16335 169.70189,326.32434 C 169.70164,325.48533 170.38172,324.80505 171.22073,324.80505 C 172.05974,324.80505 172.73982,325.48533 172.73958,326.32434 z M 173.26106,319.12798 C 173.2613,319.96699 172.58122,320.64727 171.74221,320.64727 C 170.9032,320.64727 170.22312,319.96699 170.22337,319.12798 C 170.22312,318.28897 170.9032,317.60869 171.74221,317.60869 C 172.58122,317.60869 173.2613,318.28897 173.26106,319.12798 z M 155.7395,325.28139 C 155.73974,326.1204 155.05966,326.80068 154.22065,326.80068 C 153.38164,326.80068 152.70156,326.1204 152.70181,325.28139 C 152.70156,324.44238 153.38164,323.7621 154.22065,323.7621 C 155.05966,323.7621 155.73974,324.44238 155.7395,325.28139 z M 180.56171,314.85189 C 180.56195,315.6909 179.88187,316.37118 179.04286,316.37118 C 178.20385,316.37118 177.52377,315.6909 177.52402,314.85189 C 177.52377,314.01288 178.20385,313.3326 179.04286,313.3326 C 179.88187,313.3326 180.56195,314.01288 180.56171,314.85189 z M 170.96657,302.1279 C 170.96681,302.96691 170.28673,303.64719 169.44772,303.64719 C 168.60871,303.64719 167.92863,302.96691 167.92888,302.1279 C 167.92863,301.28889 168.60871,300.60861 169.44772,300.60861 C 170.28673,300.60861 170.96681,301.28889 170.96657,302.1279 z M 188.69672,311.09727 C 188.69696,311.93628 188.01688,312.61656 187.17787,312.61656 C 186.33886,312.61656 185.65878,311.93628 185.65903,311.09727 C 185.65878,310.25826 186.33886,309.57798 187.17787,309.57798 C 188.01688,309.57798 188.69696,310.25826 188.69672,311.09727 z M 192.03416,322.36113 C 192.0344,323.20014 191.35432,323.88042 190.51531,323.88042 C 189.6763,323.88042 188.99622,323.20014 188.99647,322.36113 C 188.99622,321.52212 189.6763,320.84184 190.51531,320.84184 C 191.35432,320.84184 192.0344,321.52212 192.03416,322.36113 z M 186.19364,330.07896 C 186.19388,330.91797 185.5138,331.59825 184.67479,331.59825 C 183.83578,331.59825 183.1557,330.91797 183.15595,330.07896 C 183.1557,329.23995 183.83578,328.55967 184.67479,328.55967 C 185.5138,328.55967 186.19388,329.23995 186.19364,330.07896 z M 199.6477,336.64955 C 199.64794,337.48856 198.96786,338.16884 198.12885,338.16884 C 197.28984,338.16884 196.60976,337.48856 196.61001,336.64955 C 196.60976,335.81054 197.28984,335.13026 198.12885,335.13026 C 198.96786,335.13026 199.64794,335.81054 199.6477,336.64955 z M 194.95442,330.07896 C 194.95466,330.91797 194.27458,331.59825 193.43557,331.59825 C 192.59656,331.59825 191.91648,330.91797 191.91673,330.07896 C 191.91648,329.23995 192.59656,328.55967 193.43557,328.55967 C 194.27458,328.55967 194.95466,329.23995 194.95442,330.07896 z M 202.15079,321.57023 C 202.15103,322.40924 201.47095,323.08952 200.63194,323.08952 C 199.79293,323.08952 199.11285,322.40924 199.1131,321.57023 C 199.11285,320.73122 199.79293,320.05094 200.63194,320.05094 C 201.47095,320.05094 202.15103,320.73122 202.15079,321.57023 z M 204.86245,313.91323 C 204.86269,314.75224 204.18261,315.43252 203.3436,315.43252 C 202.50459,315.43252 201.82451,314.75224 201.82476,313.91323 C 201.82451,313.07422 202.50459,312.39394 203.3436,312.39394 C 204.18261,312.39394 204.86269,313.07422 204.86245,313.91323 z M 197.97898,308.38559 C 197.97922,309.2246 197.29914,309.90488 196.46013,309.90488 C 195.62112,309.90488 194.94104,309.2246 194.94129,308.38559 C 194.94104,307.54658 195.62112,306.8663 196.46013,306.8663 C 197.29914,306.8663 197.97922,307.54658 197.97898,308.38559 z M 208.40848,304.83956 C 208.40872,305.67857 207.72864,306.35885 206.88963,306.35885 C 206.05062,306.35885 205.37054,305.67857 205.37079,304.83956 C 205.37054,304.00055 206.05062,303.32027 206.88963,303.32027 C 207.72864,303.32027 208.40872,304.00055 208.40848,304.83956 z M 213.31035,314.33041 C 213.31059,315.16942 212.63051,315.8497 211.7915,315.8497 C 210.95249,315.8497 210.27241,315.16942 210.27266,314.33041 C 210.27241,313.4914 210.95249,312.81112 211.7915,312.81112 C 212.63051,312.81112 213.31059,313.4914 213.31035,314.33041 z M 214.9007,324.58602 C 214.90094,325.42503 214.22086,326.10531 213.38185,326.10531 C 212.54284,326.10531 211.86276,325.42503 211.86301,324.58602 C 211.86276,323.74701 212.54284,323.06673 213.38185,323.06673 C 214.22086,323.06673 214.90094,323.74701 214.9007,324.58602 z M 208.51277,335.81519 C 208.51301,336.6542 207.83293,337.33448 206.99392,337.33448 C 206.15491,337.33448 205.47483,336.6542 205.47508,335.81519 C 205.47483,334.97618 206.15491,334.2959 206.99392,334.2959 C 207.83293,334.2959 208.51301,334.97618 208.51277,335.81519 z M 221.13247,317.56356 C 221.13271,318.40257 220.45263,319.08285 219.61362,319.08285 C 218.77461,319.08285 218.09453,318.40257 218.09478,317.56356 C 218.09453,316.72455 218.77461,316.04427 219.61362,316.04427 C 220.45263,316.04427 221.13271,316.72455 221.13247,317.56356 z M 230.9362,315.99913 C 230.93644,316.83814 230.25636,317.51842 229.41735,317.51842 C 228.57834,317.51842 227.89826,316.83814 227.89851,315.99913 C 227.89826,315.16012 228.57834,314.47984 229.41735,314.47984 C 230.25636,314.47984 230.93644,315.16012 230.9362,315.99913 z M 234.27364,324.55132 C 234.27388,325.39033 233.5938,326.07061 232.75479,326.07061 C 231.91578,326.07061 231.2357,325.39033 231.23595,324.55132 C 231.2357,323.71231 231.91578,323.03203 232.75479,323.03203 C 233.5938,323.03203 234.27388,323.71231 234.27364,324.55132 z M 222.04519,331.40867 C 222.04543,332.24768 221.36535,332.92796 220.52634,332.92796 C 219.68733,332.92796 219.00725,332.24768 219.0075,331.40867 C 219.00725,330.56966 219.68733,329.88938 220.52634,329.88938 C 221.36535,329.88938 222.04543,330.56966 222.04519,331.40867 z M 226.6601,310.3672 C 226.66034,311.20621 225.98026,311.88649 225.14125,311.88649 C 224.30224,311.88649 223.62216,311.20621 223.62241,310.3672 C 223.62216,309.52819 224.30224,308.84791 225.14125,308.84791 C 225.98026,308.84791 226.66034,309.52819 226.6601,310.3672 z M 219.88092,302.96225 C 219.88116,303.80126 219.20108,304.48154 218.36207,304.48154 C 217.52306,304.48154 216.84298,303.80126 216.84323,302.96225 C 216.84298,302.12324 217.52306,301.44296 218.36207,301.44296 C 219.20108,301.44296 219.88116,302.12324 219.88092,302.96225 z M 229.78895,304.42238 C 229.78919,305.26139 229.10911,305.94167 228.2701,305.94167 C 227.43109,305.94167 226.75101,305.26139 226.75126,304.42238 C 226.75101,303.58337 227.43109,302.90309 228.2701,302.90309 C 229.10911,302.90309 229.78919,303.58337 229.78895,304.42238 z M 236.77672,311.30585 C 236.77696,312.14486 236.09688,312.82514 235.25787,312.82514 C 234.41886,312.82514 233.73878,312.14486 233.73903,311.30585 C 233.73878,310.46684 234.41886,309.78656 235.25787,309.78656 C 236.09688,309.78656 236.77696,310.46684 236.77672,311.30585 z M 245.14262,298.27927 C 245.14286,299.11828 244.46278,299.79856 243.62377,299.79856 C 242.78476,299.79856 242.10468,299.11828 242.10493,298.27927 C 242.10468,297.44026 242.78476,296.75998 243.62377,296.75998 C 244.46278,296.75998 245.14286,297.44026 245.14262,298.27927 z M 237.71537,302.85795 C 237.71561,303.69696 237.03553,304.37724 236.19652,304.37724 C 235.35751,304.37724 234.67743,303.69696 234.67768,302.85795 C 234.67743,302.01894 235.35751,301.33866 236.19652,301.33866 C 237.03553,301.33866 237.71561,302.01894 237.71537,302.85795 z M 260.86886,311.20156 C 260.8691,312.04057 260.18902,312.72085 259.35001,312.72085 C 258.511,312.72085 257.83092,312.04057 257.83117,311.20156 C 257.83092,310.36255 258.511,309.68227 259.35001,309.68227 C 260.18902,309.68227 260.8691,310.36255 260.86886,311.20156 z M 252.29931,306.82079 C 252.29955,307.6598 251.61947,308.34008 250.78046,308.34008 C 249.94145,308.34008 249.26137,307.6598 249.26162,306.82079 C 249.26137,305.98178 249.94145,305.3015 250.78046,305.3015 C 251.61947,305.3015 252.29955,305.98178 252.29931,306.82079 z M 240.93974,290.47278 C 240.93998,291.31179 240.2599,291.99207 239.42089,291.99207 C 238.58188,291.99207 237.9018,291.31179 237.90205,290.47278 C 237.9018,289.63377 238.58188,288.95349 239.42089,288.95349 C 240.2599,288.95349 240.93998,289.63377 240.93974,290.47278 z M 247.62339,283.66767 C 247.62363,284.50668 246.94355,285.18696 246.10454,285.18696 C 245.26553,285.18696 244.58545,284.50668 244.5857,283.66767 C 244.58545,282.82866 245.26553,282.14838 246.10454,282.14838 C 246.94355,282.14838 247.62363,282.82866 247.62339,283.66767 z M 254.92404,277.40997 C 254.92428,278.24898 254.2442,278.92926 253.40519,278.92926 C 252.56618,278.92926 251.8861,278.24898 251.88635,277.40997 C 251.8861,276.57096 252.56618,275.89068 253.40519,275.89068 C 254.2442,275.89068 254.92428,276.57096 254.92404,277.40997 z M 260.66027,290.75974 C 260.66051,291.59875 259.98043,292.27903 259.14142,292.27903 C 258.30241,292.27903 257.62233,291.59875 257.62258,290.75974 C 257.62233,289.92073 258.30241,289.24045 259.14142,289.24045 C 259.98043,289.24045 260.66051,289.92073 260.66027,290.75974 z M 267.59598,298.05181 C 267.59622,298.89082 266.91614,299.5711 266.07713,299.5711 C 265.23812,299.5711 264.55804,298.89082 264.55829,298.05181 C 264.55804,297.2128 265.23812,296.53252 266.07713,296.53252 C 266.91614,296.53252 267.59622,297.2128 267.59598,298.05181 z M 272.93219,303.17104 C 272.93243,304.01005 272.25235,304.69033 271.41334,304.69033 C 270.57433,304.69033 269.89425,304.01005 269.8945,303.17104 C 269.89425,302.33203 270.57433,301.65175 271.41334,301.65175 C 272.25235,301.65175 272.93243,302.33203 272.93219,303.17104 z M 284.56099,295.06216 C 284.56123,295.90117 283.88115,296.58145 283.04214,296.58145 C 282.20313,296.58145 281.52305,295.90117 281.5233,295.06216 C 281.52305,294.22315 282.20313,293.54287 283.04214,293.54287 C 283.88115,293.54287 284.56123,294.22315 284.56099,295.06216 z M 275.78305,288.77814 C 275.78329,289.61715 275.10321,290.29743 274.2642,290.29743 C 273.42519,290.29743 272.74511,289.61715 272.74536,288.77814 C 272.74511,287.93913 273.42519,287.25885 274.2642,287.25885 C 275.10321,287.25885 275.78329,287.93913 275.78305,288.77814 z M 260.48657,280.95582 C 260.48681,281.79483 259.80673,282.47511 258.96772,282.47511 C 258.12871,282.47511 257.44863,281.79483 257.44888,280.95582 C 257.44863,280.11681 258.12871,279.43653 258.96772,279.43653 C 259.80673,279.43653 260.48681,280.11681 260.48657,280.95582 z M 279.95484,281.99896 C 279.95508,282.83797 279.275,283.51825 278.43599,283.51825 C 277.59698,283.51825 276.9169,282.83797 276.91715,281.99896 C 276.9169,281.15995 277.59698,280.47967 278.43599,280.47967 C 279.275,280.47967 279.95508,281.15995 279.95484,281.99896 z M 298.7798,282.65963 C 298.78004,283.49864 298.09996,284.17892 297.26095,284.17892 C 296.42194,284.17892 295.74186,283.49864 295.74211,282.65963 C 295.74186,281.82062 296.42194,281.14034 297.26095,281.14034 C 298.09996,281.14034 298.78004,281.82062 298.7798,282.65963 z M 288.87092,283.43668 C 288.87116,284.27569 288.19108,284.95597 287.35207,284.95597 C 286.51306,284.95597 285.83298,284.27569 285.83323,283.43668 C 285.83298,282.59767 286.51306,281.91739 287.35207,281.91739 C 288.19108,281.91739 288.87116,282.59767 288.87092,283.43668 z M 282.22835,271.17669 C 282.22859,272.0157 281.54851,272.69598 280.7095,272.69598 C 279.87049,272.69598 279.19041,272.0157 279.19066,271.17669 C 279.19041,270.33768 279.87049,269.6574 280.7095,269.6574 C 281.54851,269.6574 282.22859,270.33768 282.22835,271.17669 z M 296.98529,256.96545 C 296.98553,257.80446 296.30545,258.48474 295.46644,258.48474 C 294.62743,258.48474 293.94735,257.80446 293.9476,256.96545 C 293.94735,256.12644 294.62743,255.44616 295.46644,255.44616 C 296.30545,255.44616 296.98553,256.12644 296.98529,256.96545 z M 298.69278,266.03871 C 298.69302,266.87772 298.01294,267.558 297.17393,267.558 C 296.33492,267.558 295.65484,266.87772 295.65509,266.03871 C 295.65484,265.1997 296.33492,264.51942 297.17393,264.51942 C 298.01294,264.51942 298.69302,265.1997 298.69278,266.03871 z M 306.76295,271.37844 C 306.76319,272.21745 306.08311,272.89773 305.2441,272.89773 C 304.40509,272.89773 303.72501,272.21745 303.72526,271.37844 C 303.72501,270.53943 304.40509,269.85915 305.2441,269.85915 C 306.08311,269.85915 306.76319,270.53943 306.76295,271.37844 z M 310.18301,264.24853 C 310.18325,265.08754 309.50317,265.76782 308.66416,265.76782 C 307.82515,265.76782 307.14507,265.08754 307.14532,264.24853 C 307.14507,263.40952 307.82515,262.72924 308.66416,262.72924 C 309.50317,262.72924 310.18325,263.40952 310.18301,264.24853 z M 275.1253,262.32077 C 275.12554,263.15978 274.44546,263.84006 273.60645,263.84006 C 272.76744,263.84006 272.08736,263.15978 272.08761,262.32077 C 272.08736,261.48176 272.76744,260.80148 273.60645,260.80148 C 274.44546,260.80148 275.12554,261.48176 275.1253,262.32077 z M 272.52091,272.45757 C 272.52115,273.29658 271.84107,273.97686 271.00206,273.97686 C 270.16305,273.97686 269.48297,273.29658 269.48322,272.45757 C 269.48297,271.61856 270.16305,270.93828 271.00206,270.93828 C 271.84107,270.93828 272.52115,271.61856 272.52091,272.45757 z " />
    <path
       id="path7251"
       style="fill:#000000;fill-opacity:1;stroke:none;stroke-width:0.81199998;stroke-linecap:round;stroke-linejoin:round;stroke-miterlimit:4;stroke-dashoffset:0;stroke-opacity:1"
       d="M 160.5615,256.04978 C 161.1187,255.42251 161.06175,254.46227 160.43432,253.90526 C 159.80689,253.34824 158.84667,253.40546 158.28984,254.03306 C 157.73264,254.66033 157.78958,255.62056 158.41701,256.17758 C 159.04445,256.73459 160.00466,256.67737 160.5615,256.04978 z M 174.67387,250.68471 C 175.23107,250.05744 175.17413,249.0972 174.5467,248.54019 C 173.91926,247.98317 172.95905,248.0404 172.40222,248.66799 C 171.84501,249.29526 171.90196,250.25549 172.52939,250.81251 C 173.15682,251.36952 174.11704,251.3123 174.67387,250.68471 z M 165.00062,266.08397 C 165.55782,265.4567 165.50087,264.49647 164.87344,263.93945 C 164.24601,263.38243 163.2858,263.43966 162.72897,264.06726 C 162.17176,264.69452 162.2287,265.65476 162.85613,266.21177 C 163.48357,266.76879 164.44378,266.71156 165.00062,266.08397 z M 144.08034,261.50386 C 144.63754,260.87659 144.5806,259.91636 143.95317,259.35934 C 143.32574,258.80233 142.36552,258.85955 141.80868,259.48714 C 141.25149,260.11441 141.30843,261.07465 141.93586,261.63166 C 142.56329,262.18868 143.52351,262.13146 144.08034,261.50386 z M 198.29474,256.16314 C 198.85194,255.53587 198.79499,254.57564 198.16756,254.01862 C 197.54013,253.4616 196.57992,253.51883 196.02309,254.14642 C 195.46588,254.77369 195.52282,255.73392 196.15026,256.29094 C 196.77769,256.84796 197.7379,256.79073 198.29474,256.16314 z M 183.61522,265.71875 C 184.17242,265.09148 184.11548,264.13125 183.48805,263.57423 C 182.86061,263.01721 181.9004,263.07444 181.34357,263.70204 C 180.78636,264.3293 180.84331,265.28953 181.47074,265.84655 C 182.09817,266.40357 183.05839,266.34634 183.61522,265.71875 z M 163.21238,284.98525 C 163.76958,284.35798 163.71264,283.39775 163.08521,282.84073 C 162.45778,282.28372 161.49756,282.34094 160.94073,282.96854 C 160.38353,283.5958 160.44047,284.55604 161.0679,285.11305 C 161.69533,285.67007 162.65555,285.61284 163.21238,284.98525 z M 216.95073,262.73089 C 217.50792,262.10362 217.45098,261.14338 216.82355,260.58637 C 216.19612,260.02935 215.2359,260.08657 214.67907,260.71417 C 214.12187,261.34144 214.17881,262.30167 214.80624,262.85869 C 215.43367,263.4157 216.39389,263.35848 216.95073,262.73089 z M 231.59166,250.74234 C 232.14886,250.11507 232.09192,249.15484 231.46449,248.59782 C 230.83705,248.0408 229.87684,248.09803 229.32001,248.72563 C 228.7628,249.35289 228.81975,250.31312 229.44718,250.87014 C 230.07461,251.42716 231.03483,251.36993 231.59166,250.74234 z M 254.23908,264.64399 C 254.79628,264.01672 254.73933,263.05649 254.1119,262.49947 C 253.48447,261.94246 252.52425,261.99968 251.96742,262.62728 C 251.41022,263.25454 251.46716,264.21478 252.09459,264.77179 C 252.72203,265.32881 253.68224,265.27158 254.23908,264.64399 z M 209.49178,250.12253 C 210.04898,249.49526 209.99204,248.53503 209.36461,247.97801 C 208.73717,247.421 207.77696,247.47822 207.22013,248.10582 C 206.66292,248.73308 206.71987,249.69332 207.3473,250.25033 C 207.97473,250.80735 208.93495,250.75012 209.49178,250.12253 z M 144.84762,247.69291 C 145.40483,247.06564 145.34788,246.10541 144.72045,245.54839 C 144.09302,244.99137 143.13281,245.0486 142.57597,245.67619 C 142.01877,246.30346 142.07572,247.26369 142.70315,247.82071 C 143.33058,248.37773 144.29079,248.3205 144.84762,247.69291 z M 152.12499,272.14377 C 152.68218,271.51649 152.62524,270.55626 151.99781,269.99924 C 151.37038,269.44223 150.41016,269.49945 149.85333,270.12705 C 149.29613,270.75432 149.35307,271.71455 149.9805,272.27157 C 150.60793,272.82858 151.56815,272.77136 152.12499,272.14377 z M 130.78836,259.80457 C 131.34556,259.1773 131.28861,258.21707 130.66118,257.66005 C 130.03375,257.10303 129.07354,257.16026 128.51671,257.78785 C 127.9595,258.41512 128.01645,259.37535 128.64388,259.93237 C 129.27131,260.48939 130.23152,260.43216 130.78836,259.80457 z M 268.99814,258.90952 C 269.55534,258.28224 269.4984,257.32201 268.87097,256.76499 C 268.24354,256.20798 267.28332,256.2652 266.72649,256.8928 C 266.16928,257.52006 266.22623,258.4803 266.85366,259.03731 C 267.48109,259.59433 268.44131,259.53711 268.99814,258.90952 z M 229.7351,259.58841 C 230.2923,258.96114 230.23536,258.00091 229.60793,257.44389 C 228.9805,256.88687 228.02028,256.9441 227.46345,257.57169 C 226.90624,258.19896 226.96319,259.15919 227.59062,259.71621 C 228.21805,260.27323 229.17827,260.216 229.7351,259.58841 z M 246.14693,250.67121 C 246.70413,250.04394 246.64718,249.0837 246.01975,248.52669 C 245.39232,247.96967 244.43211,248.0269 243.87528,248.65449 C 243.31807,249.28176 243.37502,250.24199 244.00245,250.79901 C 244.62988,251.35602 245.59009,251.2988 246.14693,250.67121 z M 170.92383,257.29551 C 171.48102,256.66824 171.42408,255.70801 170.79665,255.15099 C 170.16922,254.59397 169.209,254.6512 168.65217,255.2788 C 168.09497,255.90606 168.15191,256.86629 168.77934,257.42331 C 169.40677,257.98033 170.36699,257.9231 170.92383,257.29551 z M 185.42568,256.04153 C 185.98288,255.41426 185.92593,254.45402 185.2985,253.89701 C 184.67107,253.33999 183.71085,253.39721 183.15402,254.02481 C 182.59682,254.65208 182.65376,255.61231 183.28119,256.16933 C 183.90862,256.72634 184.86884,256.66912 185.42568,256.04153 z M 153.79972,260.18894 C 154.35692,259.56167 154.29998,258.60143 153.67255,258.04442 C 153.04512,257.4874 152.0849,257.54463 151.52807,258.17222 C 150.97087,258.79949 151.02781,259.75972 151.65524,260.31674 C 152.28267,260.87375 153.24289,260.81653 153.79972,260.18894 z M 139.72408,254.35029 C 140.28129,253.72302 140.22435,252.76279 139.59691,252.20577 C 138.96948,251.64875 138.00927,251.70598 137.45243,252.33357 C 136.89523,252.96084 136.95218,253.92107 137.57961,254.47809 C 138.20704,255.03511 139.16725,254.97788 139.72408,254.35029 z M 158.15755,245.1094 C 158.71474,244.48212 158.6578,243.52189 158.03037,242.96487 C 157.40294,242.40786 156.44272,242.46508 155.88589,243.09268 C 155.32869,243.71994 155.38563,244.68018 156.01306,245.23719 C 156.64049,245.79421 157.60071,245.73699 158.15755,245.1094 z M 207.65552,268.13429 C 208.21272,267.50702 208.15577,266.54679 207.52834,265.98977 C 206.90091,265.43275 205.94069,265.48998 205.38386,266.11757 C 204.82666,266.74484 204.8836,267.70507 205.51103,268.26209 C 206.13847,268.81911 207.09868,268.76188 207.65552,268.13429 z M 194.44753,264.88768 C 195.00472,264.26041 194.94778,263.30018 194.32035,262.74316 C 193.69292,262.18614 192.7327,262.24337 192.17587,262.87096 C 191.61867,263.49823 191.67561,264.45846 192.30304,265.01548 C 192.93047,265.5725 193.89069,265.51527 194.44753,264.88768 z M 204.73416,260.21287 C 205.29136,259.58559 205.23441,258.62536 204.60698,258.06834 C 203.97955,257.51133 203.01933,257.56855 202.4625,258.19615 C 201.9053,258.82341 201.96224,259.78365 202.58967,260.34066 C 203.2171,260.89768 204.17732,260.84046 204.73416,260.21287 z M 204.73416,260.21287 C 205.29136,259.58559 205.23441,258.62536 204.60698,258.06834 C 203.97955,257.51133 203.01933,257.56855 202.4625,258.19615 C 201.9053,258.82341 201.96224,259.78365 202.58967,260.34066 C 203.2171,260.89768 204.17732,260.84046 204.73416,260.21287 z M 220.63964,251.87951 C 221.19684,251.25224 221.13989,250.29201 220.51246,249.73499 C 219.88503,249.17798 218.92481,249.2352 218.36798,249.8628 C 217.81078,250.49006 217.86772,251.4503 218.49515,252.00731 C 219.12259,252.56433 220.0828,252.5071 220.63964,251.87951 z M 149.13668,254.15918 C 149.69388,253.5319 149.63693,252.57167 149.0095,252.01465 C 148.38207,251.45764 147.42186,251.51486 146.86503,252.14246 C 146.30782,252.76972 146.36476,253.72996 146.9922,254.28697 C 147.61963,254.84399 148.57984,254.78677 149.13668,254.15918 z M 226.77321,268.06354 C 227.33041,267.43627 227.27347,266.47603 226.64603,265.91902 C 226.0186,265.362 225.05839,265.41923 224.50156,266.04682 C 223.94435,266.67409 224.0013,267.63432 224.62873,268.19134 C 225.25616,268.74835 226.21637,268.69113 226.77321,268.06354 z M 236.50591,264.01268 C 237.06311,263.38541 237.00617,262.42517 236.37874,261.86816 C 235.75131,261.31114 234.79109,261.36836 234.23426,261.99596 C 233.67706,262.62323 233.734,263.58346 234.36143,264.14048 C 234.98886,264.69749 235.94908,264.64027 236.50591,264.01268 z M 238.89001,255.23661 C 239.44721,254.60934 239.39026,253.64911 238.76283,253.09209 C 238.1354,252.53507 237.17519,252.5923 236.61836,253.2199 C 236.06115,253.84716 236.11809,254.80739 236.74553,255.36441 C 237.37296,255.92143 238.33317,255.8642 238.89001,255.23661 z M 254.64306,250.96622 C 255.20026,250.33895 255.14332,249.37871 254.51589,248.8217 C 253.88845,248.26468 252.92824,248.32191 252.37141,248.9495 C 251.8142,249.57677 251.87115,250.537 252.49858,251.09402 C 253.12601,251.65103 254.08623,251.59381 254.64306,250.96622 z M 263.32433,255.32607 C 263.88153,254.6988 263.82459,253.73857 263.19715,253.18155 C 262.56972,252.62453 261.60951,252.68176 261.05268,253.30935 C 260.49547,253.93662 260.55242,254.89685 261.17985,255.45387 C 261.80728,256.01089 262.76749,255.95366 263.32433,255.32607 z M 248.70334,257.55617 C 249.26053,256.9289 249.20359,255.96866 248.57616,255.41165 C 247.94873,254.85463 246.98851,254.91186 246.43168,255.53945 C 245.87448,256.16672 245.93142,257.12695 246.55885,257.68397 C 247.18628,258.24098 248.1465,258.18376 248.70334,257.55617 z M 244.84902,264.31477 C 245.40622,263.6875 245.34928,262.72727 244.72185,262.17025 C 244.09441,261.61323 243.1342,261.67046 242.57737,262.29806 C 242.02016,262.92532 242.07711,263.88555 242.70454,264.44257 C 243.33197,264.99959 244.29219,264.94236 244.84902,264.31477 z M 236.32147,245.99743 C 236.87866,245.37016 236.82172,244.40993 236.19429,243.85291 C 235.56686,243.29589 234.60664,243.35312 234.04981,243.98072 C 233.49261,244.60798 233.54955,245.56821 234.17698,246.12523 C 234.80441,246.68225 235.76463,246.62502 236.32147,245.99743 z M 262.82143,264.17793 C 263.37863,263.55066 263.32168,262.59042 262.69425,262.03341 C 262.06682,261.47639 261.1066,261.53362 260.54977,262.16121 C 259.99257,262.78848 260.04951,263.74871 260.67694,264.30573 C 261.30438,264.86274 262.26459,264.80552 262.82143,264.17793 z " />
  </g>
</svg>
