<?xml version="1.0" encoding="UTF-8" standalone="no"?>
<!-- Created with Inkscape (http://www.inkscape.org/) -->
<svg
   xmlns:dc="http://purl.org/dc/elements/1.1/"
   xmlns:cc="http://creativecommons.org/ns#"
   xmlns:rdf="http://www.w3.org/1999/02/22-rdf-syntax-ns#"
   xmlns:svg="http://www.w3.org/2000/svg"
   xmlns="http://www.w3.org/2000/svg"
   xmlns:sodipodi="http://sodipodi.sourceforge.net/DTD/sodipodi-0.dtd"
   xmlns:inkscape="http://www.inkscape.org/namespaces/inkscape"
   width="400"
   height="400"
   id="svg2753"
   sodipodi:version="0.32"
   inkscape:version="0.46"
   version="1.0"
   sodipodi:docbase="/home/cris/trunk/themes/artistic/Beard"
   sodipodi:docname="moustache1.svg"
   inkscape:output_extension="org.inkscape.output.svg.inkscape">
  <defs
     id="defs2755" />
  <sodipodi:namedview
     id="base"
     pagecolor="#ffffff"
     bordercolor="#666666"
     borderopacity="1.0"
     gridtolerance="10000"
     guidetolerance="10"
     objecttolerance="10"
     inkscape:pageopacity="0.0"
     inkscape:pageshadow="2"
     inkscape:zoom="5.211377"
     inkscape:cx="217.43548"
     inkscape:cy="142.96032"
     inkscape:document-units="px"
     inkscape:current-layer="svg2753"
     width="400px"
     height="400px"
     inkscape:window-width="1272"
     inkscape:window-height="946"
     inkscape:window-x="0"
     inkscape:window-y="25"
     showgrid="false" />
  <metadata
     id="metadata2758">
    <rdf:RDF>
      <cc:Work
         rdf:about="">
        <dc:format>image/svg+xml</dc:format>
        <dc:type
           rdf:resource="http://purl.org/dc/dcmitype/StillImage" />
      </cc:Work>
    </rdf:RDF>
  </metadata>
  <path
     style="fill:#1a1a1a;fill-rule:evenodd;stroke:#000000;stroke-width:0.96828729px;stroke-linecap:butt;stroke-linejoin:miter;stroke-opacity:1"
     d="M 181.05218,288.42999 C 194.16193,289.71549 195.95405,283.69127 205.47682,287.02913 C 215.54604,292.82453 227.80937,287.44793 237.7057,293.95436 C 242.84264,295.56142 247.68628,298.40259 251.16927,298.1578 C 249.42666,291.22329 245.69554,290.00258 241.18861,285.46368 C 236.24395,281.81843 231.95103,278.6538 226.34708,277.12925 C 220.82343,275.62653 215.68489,273.28961 207.29009,274.2211 C 198.68196,275.17625 189.65737,272.50815 178.26226,275.69987 C 166.91563,278.87801 156.69881,283.94669 152.07414,293.98859 L 151.66031,296.13948 L 151.61878,297.58234 C 160.25529,291.57967 170.69203,289.90146 181.05218,288.42999 z "
     id="path2157"
     sodipodi:nodetypes="cccccszzcccc" />
</svg>
