<?xml version="1.0" encoding="UTF-8" standalone="no"?>
<!-- Created with Inkscape (http://www.inkscape.org/) -->
<svg
   xmlns:dc="http://purl.org/dc/elements/1.1/"
   xmlns:cc="http://creativecommons.org/ns#"
   xmlns:rdf="http://www.w3.org/1999/02/22-rdf-syntax-ns#"
   xmlns:svg="http://www.w3.org/2000/svg"
   xmlns="http://www.w3.org/2000/svg"
   xmlns:sodipodi="http://sodipodi.sourceforge.net/DTD/sodipodi-0.dtd"
   xmlns:inkscape="http://www.inkscape.org/namespaces/inkscape"
   width="400"
   height="400"
   id="svg2753"
   sodipodi:version="0.32"
   inkscape:version="0.46"
   version="1.0"
   sodipodi:docbase="/home/cris/trunk/themes/artistic/Hat"
   sodipodi:docname="peru.svg"
   inkscape:output_extension="org.inkscape.output.svg.inkscape">
  <defs
     id="defs2755" />
  <sodipodi:namedview
     id="base"
     pagecolor="#ffffff"
     bordercolor="#666666"
     borderopacity="1.0"
     gridtolerance="10000"
     guidetolerance="10"
     objecttolerance="10"
     inkscape:pageopacity="0.0"
     inkscape:pageshadow="2"
     inkscape:zoom="1.0175"
     inkscape:cx="200"
     inkscape:cy="202.04856"
     inkscape:document-units="px"
     inkscape:current-layer="svg2753"
     width="400px"
     height="400px"
     inkscape:window-width="872"
     inkscape:window-height="619"
     inkscape:window-x="54"
     inkscape:window-y="202" />
  <metadata
     id="metadata2758">
    <rdf:RDF>
      <cc:Work
         rdf:about="">
        <dc:format>image/svg+xml</dc:format>
        <dc:type
           rdf:resource="http://purl.org/dc/dcmitype/StillImage" />
      </cc:Work>
    </rdf:RDF>
  </metadata>
  <g
     id="g2355"
     inkscape:label="Layer 1"
     transform="matrix(0.9099274,0,0,0.943433,23.386251,6.9746949)">
    <path
       style="fill:#1e2328;fill-rule:nonzero;stroke:none"
       d="M 176.7987,9.8882125 C 184.2683,3.9558425 193.97251,4.9215325 202.6268,2.0247825 C 199.90886,5.7261125 208.71745,8.7841025 212.41916,6.1907425 C 214.42788,10.207602 215.60761,15.878892 218.76037,9.3210425 C 230.9093,10.331102 235.17936,23.329068 240.83268,32.986547 C 243.25526,32.433912 245.79867,32.386171 242.57465,34.560625 C 246.88385,44.839478 250.11843,63.576395 242.20427,77.292939 C 225.47568,70.028402 207.44705,66.161538 189.4507,63.965054 C 177.13029,67.600862 164.58946,71.103383 153.41851,77.601873 C 150.73007,79.437753 151.54025,74.50575 150.62646,73.005201 C 146.49716,64.641057 155.7915,60.349141 149.53866,53.101102 C 153.74276,46.227686 148.55756,34.105607 156.68717,30.776655 C 155.65093,18.949582 168.77913,15.334282 176.7987,9.8882125 z "
       id="path16" />
    <path
       sodipodi:nodetypes="cssccscscccsscssssssssscsscscsssssscssssscscsssssssssssssssssssssssssssscsssccssssssscsccssssccssssccscssssssssssssssscsssssssssscsssccsssssccscsc"
       id="path3214"
       d="M 70.491557,207.27048 C 70.268682,207.29334 70.005108,207.3554 70.022807,207.47892 C 70.591416,211.44738 70.226547,214.54888 70.022807,220.09894 C 69.861661,224.48869 74.201022,228.36617 71.713147,232.07469 C 71.689772,232.10506 71.676585,232.13704 71.674085,232.16943 C 72.273097,260.8191 68.487832,289.81744 72.952495,318.29252 C 72.95447,318.30508 72.95052,318.31787 72.952495,318.33042 C 72.545395,321.54949 70.415795,324.87763 68.96812,328.22179 C 67.545595,331.50785 66.815182,334.81777 69.046245,338.05631 C 56.28862,342.87453 48.899108,352.62942 43.616557,360.35925 C 43.583307,360.4015 43.569957,360.44682 43.577495,360.49189 C 44.318507,363.29844 41.202732,365.94287 38.421245,368.621 C 37.030507,369.96007 35.712232,371.31242 35.100932,372.69503 C 34.50002,374.05415 34.602783,375.46014 35.921245,376.88276 C 35.746932,377.9333 35.639282,378.71438 35.608745,379.25138 C 35.577233,379.80549 35.57182,380.08223 35.764995,380.33147 C 35.813295,380.39378 35.88027,380.47304 36.077495,380.53991 C 36.27472,380.60678 36.60127,380.61543 36.78062,380.57781 C 37.139307,380.50256 37.204633,380.40749 37.327495,380.31252 C 37.57322,380.1226 37.79167,379.85168 38.069682,379.55456 C 38.625707,378.96033 39.382557,378.24446 39.90562,378.00075 C 40.036382,377.93982 40.145257,377.91042 40.179057,377.906 C 40.212857,377.90159 40.16742,377.89091 40.21812,377.906 C 40.301932,377.93095 40.616795,378.18471 40.882182,378.51237 C 39.76737,379.09459 38.89782,379.85844 38.889995,380.55886 C 38.885707,380.94282 39.211232,381.33609 39.944682,381.54421 C 40.627832,381.73805 41.556345,381.76206 42.71812,381.63895 C 45.679957,382.4098 48.51792,382.56491 51.350932,382.34006 C 54.019433,382.12827 56.725982,381.60133 59.74937,380.95679 C 59.765557,381.30707 59.758245,381.68386 59.866557,381.88528 C 59.947282,382.03541 60.019782,382.17474 60.296245,382.28322 C 60.572707,382.39169 61.05357,382.38356 61.31187,382.32111 C 61.82847,382.19622 62.074045,382.0039 62.40562,381.75265 C 62.737195,381.50139 63.082407,381.19725 63.421245,380.89994 C 63.760083,380.60262 64.097057,380.30939 64.397807,380.08514 C 64.573857,379.95386 64.626482,379.9221 64.74937,379.85775 C 64.845745,380.05015 64.951045,380.38531 64.944682,380.97573 C 64.950907,381.00171 64.964045,381.02719 64.983745,381.05153 C 65.52967,382.00973 66.421807,382.53663 67.56187,382.71904 C 68.701932,382.90145 69.891532,382.75004 70.960307,382.60535 C 72.029082,382.46065 73.03652,382.32641 73.772807,382.35901 C 74.509095,382.39161 75.029182,382.5281 75.53062,383.15487 C 75.638482,383.31708 75.997007,383.40616 76.331395,383.35383 C 76.665795,383.30151 76.84942,383.12759 76.741557,382.96538 C 76.569495,382.60607 76.65172,382.34159 76.897807,382.11267 C 77.143895,381.88376 77.550833,381.68478 78.147807,381.52526 C 79.341745,381.20621 81.193745,381.06916 82.952495,381.10838 C 84.711246,381.1476 86.376036,381.3812 87.288436,381.6958 C 87.744636,381.85309 87.999286,382.00984 88.069686,382.16952 C 88.140086,382.3292 88.079496,382.52651 87.679056,382.79484 C 87.597416,382.84987 87.556156,382.91658 87.561866,382.98433 C 87.596536,383.40586 87.649886,383.67013 87.718116,383.85598 C 87.752246,383.9489 87.728346,384.00393 87.913436,384.12127 C 88.005966,384.17994 88.272556,384.26503 88.538436,384.25391 C 88.804306,384.24278 88.931466,384.18118 89.007186,384.14021 C 89.158606,384.0583 89.179016,384.00393 89.241556,383.93177 C 89.304096,383.85962 89.372206,383.7773 89.436866,383.68544 C 89.566206,383.50172 89.697006,383.27825 89.866556,383.04118 C 90.205656,382.56703 90.674566,382.0487 91.155616,381.77159 C 91.396146,381.63304 91.604036,381.56058 91.780616,381.54421 C 91.957206,381.52783 92.164916,381.54404 92.522806,381.67685 C 92.736406,381.7539 93.027156,381.75688 93.247266,381.68427 C 93.467386,381.61166 93.568556,381.4794 93.499366,381.35471 C 93.073996,380.5896 92.942496,380.03823 92.991556,379.6872 C 93.040616,379.33618 93.248896,379.2218 93.460306,379.15663 C 93.671716,379.09147 94.042236,379.04997 94.593116,379.09979 C 95.144006,379.14961 95.813896,379.28059 96.507186,379.42192 C 97.893746,379.70457 99.289066,380.07882 100.4525,380.16093 C 100.74336,380.18146 101.04729,380.17707 101.35094,380.12303 C 101.65459,380.069 101.9341,379.93677 102.05406,379.78195 C 102.27614,379.49532 102.1212,379.19093 101.81969,378.75871 C 101.81984,378.74723 101.8195,378.75108 101.81969,378.73976 C 101.83132,378.0342 101.91107,377.72485 101.97594,377.56492 C 102.24969,377.67111 102.5775,377.80975 103.14781,377.88705 C 103.83719,377.98049 104.73562,377.89812 105.56969,377.52702 C 105.72066,377.45952 105.79366,377.36035 105.765,377.26174 C 104.17664,371.96115 102.72789,365.81666 96.858746,361.3067 C 92.709456,354.59611 91.378746,347.04575 83.655616,340.78496 C 83.617236,340.7486 83.564086,340.71637 83.499366,340.69022 C 82.551295,340.33521 81.995445,340.01106 81.741557,339.72382 C 81.48767,339.43657 81.493295,339.1913 81.663432,338.90901 C 82.00372,338.34443 83.182556,337.69969 84.554056,337.01411 C 85.925556,336.32853 87.488386,335.59161 88.460306,334.74023 C 89.392656,333.92353 89.670146,332.9643 88.733746,331.93579 C 88.733716,331.92945 88.733766,331.92317 88.733746,331.91684 C 88.645906,304.98701 87.251296,278.48614 81.272807,251.80057 C 81.27467,251.78184 81.271032,251.76247 81.272807,251.74372 C 81.610107,248.18778 80.371357,244.41921 79.90562,240.75332 C 75.516286,227.99374 74.232021,213.72326 76.858745,208.99484 C 76.857882,208.98809 76.85972,208.9826 76.858745,208.97589 C 76.79737,208.55134 76.549083,208.21019 76.116557,207.95265 C 75.677207,207.69103 75.05632,207.51695 74.43687,207.42207 C 73.197957,207.23232 71.801757,207.27785 70.608745,207.27048 C 70.56977,207.2687 70.530532,207.2687 70.491557,207.27048 z M 326.59098,215.57013 C 325.42818,215.48181 324.4158,215.67844 323.73942,216.06281 C 323.06303,216.44717 322.67669,216.99323 322.41129,217.63557 C 321.88049,218.92024 321.86258,220.64855 321.78629,222.50546 C 321.71,224.36236 323.12666,226.32952 322.45035,228.01961 C 321.77405,229.7097 324.5604,231.10126 322.40419,231.86625 C 320.74778,260.57213 317.0495,289.1234 318.2316,317.74301 C 318.56793,321.23366 316.8186,325.03271 315.84879,328.77131 C 314.89757,332.43828 314.71235,336.06784 318.15348,339.28799 C 308.82641,344.0347 304.39139,350.31642 300.7316,356.83474 C 297.02907,363.4292 294.08053,370.2594 287.72379,376.03005 C 287.5932,376.14933 287.64099,376.29613 287.84098,376.39008 C 290.64794,377.72102 291.85912,378.31711 293.58317,378.64501 C 295.30722,378.97291 297.30525,379.02017 301.74723,379.36507 C 301.91287,379.37737 302.08176,379.35688 302.21598,379.30822 C 303.18713,379.00678 303.66403,379.07421 304.24723,379.27033 C 304.83043,379.46645 305.42422,379.87939 306.00504,380.31252 C 306.58587,380.74565 307.12152,381.19813 307.95817,381.46841 C 308.37649,381.60355 308.93115,381.67846 309.4816,381.63895 C 310.03206,381.59944 310.55144,381.46029 311.08317,381.22207 C 311.09676,381.21604 311.10979,381.20971 311.12223,381.20312 C 312.54806,380.42277 313.84159,380.25031 315.26285,380.33147 C 316.68412,380.41263 318.24424,380.78314 319.87223,381.18417 C 321.50022,381.58521 323.17717,382.01056 324.98942,382.11267 C 326.70819,382.20952 328.52404,381.96326 330.22379,381.18417 C 333.69937,381.43357 335.57434,381.34156 336.82535,381.52526 C 337.46852,381.6197 338.00543,381.77545 338.70035,382.11267 C 339.39528,382.4499 340.21395,382.97393 341.31754,383.76123 C 341.48319,383.88144 341.80077,383.92818 342.07618,383.8729 C 342.3516,383.81761 342.50823,383.67569 342.45035,383.53385 C 342.11413,382.65732 342.17709,382.13305 342.37223,381.92319 C 342.46979,381.81825 342.55612,381.79712 342.68473,381.77159 C 342.81334,381.74606 343.04759,381.72983 343.34879,381.75265 C 344.55359,381.84392 346.74919,382.50838 348.8566,382.96538 C 349.01609,383.00264 349.20065,383.00534 349.36449,382.97283 C 349.52833,382.94032 349.65606,382.87563 349.71598,382.79484 C 351.11395,381.24876 354.20524,380.62407 357.05973,379.85775 C 358.48698,379.47458 359.84883,379.05699 360.80973,378.43657 C 361.77063,377.81615 362.27183,376.99704 362.02067,375.91636 C 362.01444,375.89038 362.0013,375.8649 361.9816,375.84057 C 351.35272,364.00547 347.6469,350.26023 330.38004,339.85646 C 334.73209,337.67503 335.70089,335.14439 335.53629,332.54215 C 335.36696,329.86501 334.13638,327.1017 334.36442,324.46989 C 334.36497,324.46362 334.36385,324.45722 334.36442,324.45094 C 335.33082,321.30542 334.32325,318.12428 333.62223,314.97646 C 332.9198,311.82236 332.51513,308.7117 334.63785,305.7104 C 334.66123,305.68004 334.67442,305.64806 334.67692,305.61566 C 335.63153,281.65561 326.73136,257.37822 327.7883,233.72325 C 327.78993,233.71063 327.78993,233.69797 327.7883,233.68535 C 326.63365,227.89173 328.01143,222.05678 327.12424,216.1765 C 327.10471,216.07007 326.97115,215.97649 326.77268,215.93016 C 326.04698,215.74647 327.21793,215.61775 326.59098,215.57013 z "
       style="fill:#2e3335;fill-rule:nonzero;stroke:none" />
    <path
       sodipodi:nodetypes="ccssssccsccccsccccccccccccscsccscscssscscscsscccccc"
       id="path3206"
       d="M 192.96322,23.24379 C 192.92868,23.252508 192.89524,23.262682 192.86306,23.274239 C 177.1124,26.100576 161.00623,28.815999 146.59265,33.901121 C 146.56017,33.912579 146.52498,33.920088 146.49251,33.931571 C 144.54284,34.386082 143.48686,34.641206 142.88702,34.814607 C 142.43341,34.945741 142.26864,35.066745 142.0858,35.180001 C 142.06562,35.192491 142.00308,35.198812 141.98565,35.21045 C 122.06302,41.104487 100.85784,48.14164 89.30548,60.148605 C 89.124804,60.346009 89.190987,60.593041 89.465355,60.745369 C 89.739724,60.897697 90.150317,60.915363 90.457233,60.788045 C 121.77958,47.469117 161.14012,41.863095 199.02245,44.984745 C 199.03911,44.985064 199.05583,44.985064 199.0725,44.984745 C 238.68217,47.022917 281.35672,48.651324 314.1977,63.528503 C 314.51061,63.689685 314.97317,63.681197 315.26954,63.508829 C 315.56587,63.336461 315.60037,63.055858 315.34947,62.858612 C 302.13523,50.430604 279.41644,42.901828 261.21707,33.748874 C 261.15859,33.71223 261.09099,33.681404 261.01677,33.657524 C 239.47393,27.968984 216.33228,24.959547 193.21361,23.24379 C 193.13066,23.235813 193.04617,23.235813 192.96322,23.24379 L 192.96322,23.24379 z M 179.54279,105.0312 C 132.75497,105.02201 82.632109,114.11429 58.358387,140.59623 C 58.281519,140.67963 58.246682,140.77493 58.258235,140.87029 C 59.145041,155.99774 65.836183,170.61308 67.772713,185.53973 C 67.772185,185.54987 67.772185,185.56004 67.772713,185.57017 C 72.212895,206.07465 67.347635,228.2211 75.334219,247.96123 C 75.413044,248.17887 75.724638,248.33625 76.090939,248.34344 C 76.457225,248.35063 76.784859,248.20577 76.886582,247.9917 C 80.232826,241.73918 78.491199,235.04588 76.786429,228.32132 C 75.081658,221.59672 75.449888,215.35652 76.686276,208.46822 C 76.705283,208.44865 76.722012,208.42829 76.736353,208.40731 C 83.008105,185.0945 83.083036,157.63453 113.49228,140.77893 C 113.50998,140.76912 113.52466,140.75829 113.54235,140.74848 C 147.14035,129.55801 187.59653,130.45841 224.76159,132.31395 C 224.77802,132.3148 224.79528,132.31315 224.81168,132.31395 C 248.83836,134.54279 273.74006,138.5414 290.91228,149.54838 C 290.9282,149.55899 290.94492,149.56915 290.96233,149.57885 C 307.75767,158.58566 313.86798,170.60187 316.55128,183.46916 C 319.23032,196.31595 318.47874,209.98612 321.65906,222.20095 C 321.66149,222.22119 321.65666,222.24159 321.65906,222.26184 C 322.76689,231.56999 321.01183,240.97222 322.51035,250.3972 C 322.53698,250.57634 322.72377,250.73196 322.99618,250.80205 C 323.2686,250.87212 323.58235,250.84526 323.81232,250.73214 C 325.51104,249.94079 326.45337,248.73318 327.01722,247.35224 C 327.58104,245.97132 327.78857,244.37718 327.81842,242.75437 C 327.87811,239.50876 327.39558,236.05753 328.11887,233.80222 C 328.12726,233.76178 328.12726,233.72085 328.11887,233.68041 C 324.01481,203.41516 336.9108,173.54086 338.93533,143.30624 C 338.9469,143.2109 338.91205,143.11559 338.8352,143.03219 C 307.71759,112.02014 243.5672,105.4654 188.8069,105.153 C 185.72555,105.0742 182.66249,105.03181 179.54279,105.0312 z "
       style="fill:#616b6b;fill-rule:nonzero;stroke:none" />
    <path
       id="path24"
       d="M 177.62989,43.632786 C 146.51287,43.72911 115.60532,49.511319 90.016562,60.392201 C 84.019323,63.861733 77.707607,69.085319 77.637725,74.228463 C 113.65259,51.700021 171.59189,50.100534 219.81408,54.424095 C 257.80185,58.693289 301.95728,60.553068 328.65971,79.904253 C 326.72981,73.689784 321.17453,67.93956 314.67843,63.120477 C 281.59344,48.132759 238.73919,46.522875 199.14263,44.485372 C 192.00223,43.896977 184.81074,43.610555 177.62989,43.632786 z M 182.39714,93.618717 C 160.21254,93.592817 138.18348,95.372117 117.09778,100.09838 C 93.674721,105.63182 75.144491,116.4973 57.046392,126.7478 C 59.190598,131.20616 56.562359,139.07599 59.04944,140.82764 C 84.738226,112.80192 139.67097,104.39583 188.8069,105.65237 C 243.46798,105.9642 307.26571,112.50426 338.15416,143.28796 C 338.29401,139.07084 339.40214,134.92119 339.6364,130.71841 C 321.20204,113.87696 288.23836,104.71742 257.23102,98.953467 C 232.85623,95.984737 207.5397,93.648057 182.39714,93.618717 z "
       style="fill:#eec24a;fill-rule:nonzero;stroke:none" />
    <path
       style="fill:#283033;fill-rule:nonzero;stroke:none"
       d="M 77.657723,74.226426 C 113.67259,51.697986 171.59902,50.108339 219.82122,54.431901 C 257.80898,58.701095 301.95032,60.554411 328.65274,79.905598 C 341.49691,95.305307 339.34632,113.96857 339.6233,130.70904 C 321.18893,113.86761 288.2547,104.71845 257.24735,98.954497 C 211.36541,93.366277 162.0722,90.007258 117.08934,100.08992 C 93.666291,105.62336 75.150388,116.50196 57.052305,126.75245 C 54.612801,108.65351 60.331069,89.307512 77.657723,74.226426 z "
       id="path28" />
  </g>
</svg>
