<?xml version="1.0" encoding="UTF-8" standalone="no"?>
<!-- Created with Inkscape (http://www.inkscape.org/) -->
<svg
   xmlns:dc="http://purl.org/dc/elements/1.1/"
   xmlns:cc="http://creativecommons.org/ns#"
   xmlns:rdf="http://www.w3.org/1999/02/22-rdf-syntax-ns#"
   xmlns:svg="http://www.w3.org/2000/svg"
   xmlns="http://www.w3.org/2000/svg"
   xmlns:sodipodi="http://sodipodi.sourceforge.net/DTD/sodipodi-0.dtd"
   xmlns:inkscape="http://www.inkscape.org/namespaces/inkscape"
   width="400"
   height="400"
   id="svg2753"
   sodipodi:version="0.32"
   inkscape:version="0.46"
   version="1.0"
   sodipodi:docbase="/home/cris/trunk/themes/artistic/Head"
   sodipodi:docname="head2.svg"
   inkscape:output_extension="org.inkscape.output.svg.inkscape">
  <defs
     id="defs2755" />
  <sodipodi:namedview
     id="base"
     pagecolor="#ffffff"
     bordercolor="#666666"
     borderopacity="1.0"
     gridtolerance="10000"
     guidetolerance="10"
     objecttolerance="10"
     inkscape:pageopacity="0.0"
     inkscape:pageshadow="2"
     inkscape:zoom="1.0175"
     inkscape:cx="200"
     inkscape:cy="200"
     inkscape:document-units="px"
     inkscape:current-layer="svg2753"
     width="400px"
     height="400px"
     inkscape:window-width="872"
     inkscape:window-height="619"
     inkscape:window-x="138"
     inkscape:window-y="175" />
  <metadata
     id="metadata2758">
    <rdf:RDF>
      <cc:Work
         rdf:about="">
        <dc:format>image/svg+xml</dc:format>
        <dc:type
           rdf:resource="http://purl.org/dc/dcmitype/StillImage" />
      </cc:Work>
    </rdf:RDF>
  </metadata>
  <path
     style="fill:#deaa87;fill-opacity:1;stroke:#000000;stroke-width:2.92761993;stroke-linecap:round;stroke-linejoin:round;stroke-miterlimit:4;stroke-dashoffset:0;stroke-opacity:1;display:inline"
     d="M 300.26784,222.77401 C 296.02052,260.6716 291.6575,279.67484 279.14988,298.0583 C 266.64226,316.44176 249.17926,332.3753 241.0865,339.25286 C 232.99374,346.13041 214.40572,355.94943 200.98519,355.39506 C 187.56467,354.84068 176.84659,346.89134 165.49649,339.5487 C 154.14639,332.20607 135.83308,316.69963 123.39146,297.75378 C 110.94983,278.80791 106.17522,250.25169 103.91867,211.85398 C 101.66046,173.4282 107.44711,144.50034 126.06286,120.69344 C 144.6786,96.886522 179.24843,87.789362 206.08948,88.898132 C 232.93054,90.006882 260.85905,95.420422 279.22159,121.46612 C 297.405,147.25775 304.50797,184.94056 300.26784,222.77401 z "
     sodipodi:nodetypes="czzsszzzzzz"
     id="path3499" />
</svg>
