<?xml version="1.0" encoding="UTF-8" standalone="no"?>
<!-- Created with Inkscape (http://www.inkscape.org/) -->
<svg
   xmlns:dc="http://purl.org/dc/elements/1.1/"
   xmlns:cc="http://creativecommons.org/ns#"
   xmlns:rdf="http://www.w3.org/1999/02/22-rdf-syntax-ns#"
   xmlns:svg="http://www.w3.org/2000/svg"
   xmlns="http://www.w3.org/2000/svg"
   xmlns:sodipodi="http://sodipodi.sourceforge.net/DTD/sodipodi-0.dtd"
   xmlns:inkscape="http://www.inkscape.org/namespaces/inkscape"
   width="400"
   height="400"
   id="svg2753"
   sodipodi:version="0.32"
   inkscape:version="0.46"
   version="1.0"
   sodipodi:docbase="/home/cris/trunk/themes/artistic/Head"
   sodipodi:docname="head1.svg"
   inkscape:output_extension="org.inkscape.output.svg.inkscape">
  <defs
     id="defs2755" />
  <sodipodi:namedview
     id="base"
     pagecolor="#ffffff"
     bordercolor="#666666"
     borderopacity="1.0"
     gridtolerance="10000"
     guidetolerance="10"
     objecttolerance="10"
     inkscape:pageopacity="0.0"
     inkscape:pageshadow="2"
     inkscape:zoom="1.0175"
     inkscape:cx="200"
     inkscape:cy="200"
     inkscape:document-units="px"
     inkscape:current-layer="svg2753"
     width="400px"
     height="400px"
     inkscape:window-width="872"
     inkscape:window-height="619"
     inkscape:window-x="138"
     inkscape:window-y="175" />
  <metadata
     id="metadata2758">
    <rdf:RDF>
      <cc:Work
         rdf:about="">
        <dc:format>image/svg+xml</dc:format>
        <dc:type
           rdf:resource="http://purl.org/dc/dcmitype/StillImage" />
      </cc:Work>
    </rdf:RDF>
  </metadata>
  <path
     style="fill:#deaa87;fill-opacity:1;stroke:#000000;stroke-width:2.92761993;stroke-linecap:round;stroke-linejoin:round;stroke-miterlimit:4;stroke-dashoffset:0;stroke-opacity:1;display:inline"
     d="M 295.41981,210.80248 C 291.17249,248.70007 293.34898,275.8777 280.84136,294.26116 C 268.33374,312.64462 251.96066,334.02775 243.8679,340.90531 C 235.77514,347.78286 218.27703,347.24766 204.8565,346.69329 C 191.43598,346.13891 179.62799,348.54379 168.27789,341.20115 C 156.92779,333.85852 137.52456,312.90249 125.08294,293.95664 C 112.64131,275.01077 112.22637,248.63439 109.96982,210.23668 C 107.71162,171.8109 109.68355,145.06288 128.2993,121.25598 C 146.91504,97.449057 179.84999,88.351897 206.69104,89.460657 C 233.5321,90.569407 263.09549,95.982957 281.45803,122.02866 C 299.64144,147.82029 299.65994,172.96903 295.41981,210.80248 z "
     sodipodi:nodetypes="czzsszzzzzz"
     id="path2208" />
</svg>
