<?xml version="1.0" encoding="UTF-8" standalone="no"?>
<!-- Created with Inkscape (http://www.inkscape.org/) -->
<svg
   xmlns:dc="http://purl.org/dc/elements/1.1/"
   xmlns:cc="http://creativecommons.org/ns#"
   xmlns:rdf="http://www.w3.org/1999/02/22-rdf-syntax-ns#"
   xmlns:svg="http://www.w3.org/2000/svg"
   xmlns="http://www.w3.org/2000/svg"
   xmlns:sodipodi="http://sodipodi.sourceforge.net/DTD/sodipodi-0.dtd"
   xmlns:inkscape="http://www.inkscape.org/namespaces/inkscape"
   width="400"
   height="400"
   id="svg2753"
   sodipodi:version="0.32"
   inkscape:version="0.46"
   version="1.0"
   sodipodi:docbase="/home/cris/trunk/themes/artistic/Hair"
   sodipodi:docname="hair4.svg"
   inkscape:output_extension="org.inkscape.output.svg.inkscape">
  <defs
     id="defs2755" />
  <sodipodi:namedview
     id="base"
     pagecolor="#ffffff"
     bordercolor="#666666"
     borderopacity="1.0"
     gridtolerance="10000"
     guidetolerance="10"
     objecttolerance="10"
     inkscape:pageopacity="0.0"
     inkscape:pageshadow="2"
     inkscape:zoom="1.3"
     inkscape:cx="200"
     inkscape:cy="200"
     inkscape:document-units="px"
     inkscape:current-layer="svg2753"
     width="400px"
     height="400px"
     inkscape:window-width="1090"
     inkscape:window-height="732"
     inkscape:window-x="91"
     inkscape:window-y="146" />
  <metadata
     id="metadata2758">
    <rdf:RDF>
      <cc:Work
         rdf:about="">
        <dc:format>image/svg+xml</dc:format>
        <dc:type
           rdf:resource="http://purl.org/dc/dcmitype/StillImage" />
      </cc:Work>
    </rdf:RDF>
  </metadata>
  <path
     style="opacity:1;fill:#1a1a1a;fill-opacity:1;fill-rule:evenodd;stroke:#000000;stroke-width:2.93124795;stroke-linecap:round;stroke-linejoin:round;stroke-miterlimit:4;stroke-dasharray:none;stroke-dashoffset:0;stroke-opacity:1;display:inline"
     d="M 325.87171,175.1697 C 331.95173,262.75435 307.52998,275.14626 287.40793,288.95487 C 293.0196,277.55327 302.75384,184.95228 287.68361,162.38483 C 272.44043,139.55837 264.67533,105.69957 204.10563,115.26839 C 150.04393,106.97732 134.19361,145.21347 126.74235,164.82179 C 118.97421,185.26402 104.96538,233.57043 123.20647,267.65393 C 141.44759,301.73742 166.99583,265.30114 147.42016,287.5739 C 140.25913,295.72156 128.85873,302.44041 113.72014,291.84323 C 83.093459,270.40421 72.462069,227.97446 73.218969,187.99232 C 73.976149,147.99454 80.742649,124.63465 102.01535,96.525355 C 123.28803,68.416055 156.58816,49.570365 197.60677,48.888245 C 279.64399,47.524005 319.79376,87.614905 325.87171,175.1697 z "
     sodipodi:nodetypes="cczcszszzzsz"
     id="path2263" />
</svg>
