<?xml version="1.0" encoding="UTF-8" standalone="no"?>
<!-- Created with Inkscape (http://www.inkscape.org/) -->
<svg
   xmlns:dc="http://purl.org/dc/elements/1.1/"
   xmlns:cc="http://creativecommons.org/ns#"
   xmlns:rdf="http://www.w3.org/1999/02/22-rdf-syntax-ns#"
   xmlns:svg="http://www.w3.org/2000/svg"
   xmlns="http://www.w3.org/2000/svg"
   xmlns:sodipodi="http://sodipodi.sourceforge.net/DTD/sodipodi-0.dtd"
   xmlns:inkscape="http://www.inkscape.org/namespaces/inkscape"
   width="400"
   height="400"
   id="svg2753"
   sodipodi:version="0.32"
   inkscape:version="0.46"
   version="1.0"
   sodipodi:docbase="/home/cris/trunk/themes/artistic/Hair"
   sodipodi:docname="hair15.svg"
   inkscape:output_extension="org.inkscape.output.svg.inkscape">
  <defs
     id="defs2755" />
  <sodipodi:namedview
     id="base"
     pagecolor="#ffffff"
     bordercolor="#666666"
     borderopacity="1.0"
     gridtolerance="10000"
     guidetolerance="10"
     objecttolerance="10"
     inkscape:pageopacity="0.0"
     inkscape:pageshadow="2"
     inkscape:zoom="2.8284271"
     inkscape:cx="192.42697"
     inkscape:cy="271.91185"
     inkscape:document-units="px"
     inkscape:current-layer="svg2753"
     width="400px"
     height="400px"
     inkscape:window-width="1090"
     inkscape:window-height="732"
     inkscape:window-x="91"
     inkscape:window-y="146" />
  <metadata
     id="metadata2758">
    <rdf:RDF>
      <cc:Work
         rdf:about="">
        <dc:format>image/svg+xml</dc:format>
        <dc:type
           rdf:resource="http://purl.org/dc/dcmitype/StillImage" />
      </cc:Work>
    </rdf:RDF>
  </metadata>
  <path
     style="fill:#552200;fill-rule:evenodd;stroke:#000000;stroke-width:0.98586261px;stroke-linecap:butt;stroke-linejoin:miter;stroke-opacity:1"
     d="M 99.030341,191.63506 C 96.431677,190.04288 93.054177,184.4942 93.736695,181.7488 C 94.419213,179.0034 89.955519,176.07106 89.955519,173.3835 C 89.955519,170.69594 91.437224,169.51922 89.199282,165.01819 C 86.961339,160.51717 87.69193,158.17 90.711754,155.89242 C 93.731578,153.61484 88.443047,150.33122 88.443047,146.76662 C 88.443047,143.20202 94.462993,145.8857 92.980461,139.92228 C 91.497929,133.95886 94.584533,133.83843 96.761641,133.83843 C 98.938749,133.83843 98.633291,126.63289 100.54282,124.71265 C 102.45235,122.79241 98.306178,119.35701 101.29906,116.34733 C 104.29194,113.33765 104.32399,110.81715 104.32399,105.7006 C 104.32399,100.58405 109.13478,103.08001 110.37389,98.095771 C 111.613,93.111534 115.89016,91.385759 119.44871,93.532879 C 123.00726,95.679999 122.26347,88.294052 126.25483,86.688541 C 130.24619,85.08303 131.59107,89.687629 135.32965,85.928059 C 139.06822,82.168489 141.88223,78.930749 145.91694,81.365167 C 149.95165,83.799585 148.55669,77.469476 154.23554,76.041793 C 159.91438,74.614109 163.82811,84.126303 166.33532,79.083721 C 168.84253,74.041138 171.09337,73.25968 176.16637,72.239383 C 181.23937,71.219086 180.87941,79.490998 183.72873,73.760347 C 186.57806,68.029697 190.38794,67.982871 194.31602,69.957937 C 198.2441,71.933003 196.83511,66.916008 202.63461,66.916008 C 208.43411,66.916008 207.89761,67.661082 212.46567,69.957937 C 217.03373,72.254793 221.32426,67.386574 226.07791,73.760347 C 230.83156,80.13412 236.26075,70.718419 240.4464,70.718419 C 244.63206,70.718419 243.50089,76.921164 244.22757,79.844203 C 244.95425,82.767242 246.92496,76.124137 253.30239,74.520829 C 259.67982,72.917521 261.8747,81.105127 260.86475,85.167578 C 259.8548,89.230029 269.3737,80.604686 272.96453,80.604686 C 276.55536,80.604686 277.20957,84.812748 278.25818,87.449023 C 279.30679,90.085298 284.17043,85.029185 286.57676,87.449023 C 288.98309,89.868861 287.32529,95.10035 286.57676,99.616737 C 285.82823,104.13312 298.23723,98.610165 300.189,106.46107 C 302.14077,114.31197 295.93068,113.66575 305.48264,115.58686 C 315.0346,117.50797 304.76778,129.23394 303.21394,130.7965 C 301.6601,132.35907 310.77629,119.281 310.77629,135.35939 C 310.77629,151.43777 303.69088,151.11703 308.10491,156.21265 C 312.34668,161.10941 307.3162,173.06063 306.23889,174.14398 C 305.16159,175.22733 310.77629,173.56385 310.77629,177.94638 C 310.77629,182.32891 311.67792,183.5477 307.9084,187.47909 C 303.97367,191.58278 307.36087,193.20583 306.23889,197.71891 C 305.11691,202.23199 297.52488,197.78453 294.89535,196.19796 C 292.26583,194.61139 298.34915,191.09022 293.38287,188.59313 C 288.41659,186.09605 291.8094,181.76413 294.89535,180.98831 C 297.9813,180.21249 287.46997,176.63493 288.84547,171.10205 C 290.22097,165.56916 275.39719,164.49895 272.2083,155.89242 C 270.02627,149.41851 272.63958,145.83298 266.61022,143.82459 C 258.4929,135.66169 269.31149,136.21978 263.58527,136.21978 C 257.85905,136.21978 259.22146,127.81083 252.99797,129.37544 C 246.77448,130.94005 246.28472,125.75983 245.43561,124.05207 C 244.58651,122.34431 236.99628,125.08735 235.60455,119.48918 C 234.21282,113.89101 231.33742,120.18171 228.04221,121.01014 C 224.747,121.83857 223.53176,117.85969 224.26102,114.92627 C 224.99027,111.99285 220.73868,121.01014 215.1862,121.01014 C 209.63372,121.01014 215.12877,114.58935 207.62384,120.24965 C 200.11891,125.90995 199.76023,121.31926 198.54902,116.44726 C 197.33781,111.57526 194.34957,124.52935 188.00069,122.93322 C 181.65181,121.33709 181.6619,121.66164 178.19563,125.18841 C 174.53532,128.9126 170.50779,124.93425 172.08077,121.77062 C 173.65375,118.60699 168.34697,127.62107 159.98101,129.37544 C 151.69292,131.11348 152.4752,122.35226 153.88199,127.04062 C 155.2562,131.62042 142.66302,143.4858 140.7707,135.7061 C 136.58592,136.16226 137.00756,133.34446 135.10099,143.04296 C 135.64509,149.50796 135.22614,148.19435 130.52457,151.73163 C 128.35361,152.82321 127.12072,150.01766 125.4986,158.17385 C 123.87648,166.33004 121.77573,159.92944 123.22988,165.77867 C 124.68402,171.6279 115.66753,173.67464 115.66753,177.18589 C 115.66753,180.69714 114.48443,185.98046 111.88635,188.59313 C 109.28826,191.2058 111.85786,192.79727 107.34893,196.19796 C 102.84,199.59865 101.62901,193.22724 99.030341,191.63506 z "
     id="path2157"
     sodipodi:nodetypes="czzzzzzzzzzzzzzzzzzzzzzzzzzzzzzzzzzzzzzzzzzzzcczzzzzzzzzzzzzzccczzzzzz" />
</svg>
