<?xml version="1.0" encoding="UTF-8" standalone="no"?>
<!-- Created with Inkscape (http://www.inkscape.org/) -->
<svg
   xmlns:dc="http://purl.org/dc/elements/1.1/"
   xmlns:cc="http://creativecommons.org/ns#"
   xmlns:rdf="http://www.w3.org/1999/02/22-rdf-syntax-ns#"
   xmlns:svg="http://www.w3.org/2000/svg"
   xmlns="http://www.w3.org/2000/svg"
   xmlns:xlink="http://www.w3.org/1999/xlink"
   xmlns:sodipodi="http://sodipodi.sourceforge.net/DTD/sodipodi-0.dtd"
   xmlns:inkscape="http://www.inkscape.org/namespaces/inkscape"
   width="400"
   height="400"
   id="svg2753"
   sodipodi:version="0.32"
   inkscape:version="0.46"
   version="1.0"
   sodipodi:docbase="/home/cris/trunk/themes/artistic/Hair"
   sodipodi:docname="hair17.svg"
   inkscape:output_extension="org.inkscape.output.svg.inkscape">
  <defs
     id="defs2755">
    <linearGradient
       id="linearGradient6408">
      <stop
         style="stop-color:#3b382d;stop-opacity:1;"
         offset="0"
         id="stop6410" />
      <stop
         style="stop-color:#d0cdc1;stop-opacity:0.2783505;"
         offset="1"
         id="stop6412" />
    </linearGradient>
    <linearGradient
       inkscape:collect="always"
       xlink:href="#linearGradient6408"
       id="linearGradient6414"
       x1="207"
       y1="77"
       x2="211"
       y2="162"
       gradientUnits="userSpaceOnUse" />
  </defs>
  <sodipodi:namedview
     id="base"
     pagecolor="#ffffff"
     bordercolor="#666666"
     borderopacity="1.0"
     gridtolerance="10000"
     guidetolerance="10"
     objecttolerance="10"
     inkscape:pageopacity="0.0"
     inkscape:pageshadow="2"
     inkscape:zoom="2.8284271"
     inkscape:cx="265.69821"
     inkscape:cy="272.38446"
     inkscape:document-units="px"
     inkscape:current-layer="svg2753"
     width="400px"
     height="400px"
     inkscape:window-width="1090"
     inkscape:window-height="732"
     inkscape:window-x="91"
     inkscape:window-y="146" />
  <metadata
     id="metadata2758">
    <rdf:RDF>
      <cc:Work
         rdf:about="">
        <dc:format>image/svg+xml</dc:format>
        <dc:type
           rdf:resource="http://purl.org/dc/dcmitype/StillImage" />
      </cc:Work>
    </rdf:RDF>
  </metadata>
  <path
     style="opacity:1;fill:#aca793;fill-opacity:1;fill-rule:evenodd;stroke:#262118;stroke-width:3.02326512;stroke-linecap:round;stroke-linejoin:round;stroke-miterlimit:4;stroke-dasharray:none;stroke-dashoffset:0;stroke-opacity:0.86549705;display:inline"
     d="M 301.12445,133.21765 C 304.12153,144.64322 306.44966,193.84902 301.42493,197.07181 C 286.57617,186.4692 286.07413,150.97738 246.95371,127.7202 C 225.87091,134.93809 230.98576,120.20522 192.76569,125.51106 C 154.05501,130.88501 125.55217,190.53853 104.26574,197.20243 C 100.94749,192.40657 99.575659,155.4788 110.60061,124.98199 C 121.62557,94.485177 149.96479,86.319612 202.72757,82.724862 C 228.5665,80.964442 257.53959,91.992386 261.85149,101.6173 C 286.23836,102.5729 293.94064,112.364 301.12445,133.21765 z "
     sodipodi:nodetypes="ccczczzcc"
     id="path4440" />
  <path
     id="path5429"
     sodipodi:nodetypes="ccccczzcc"
     d="M 301.12445,133.21765 C 304.12153,144.64322 306.44966,193.84902 301.42493,197.07181 C 286.57617,186.4692 289.57413,152.97738 247.95371,126.2202 C 224.87091,132.93809 229.70239,118.96042 193.76569,123.01106 C 139.26224,136.5721 125.55217,190.53853 104.26574,197.20243 C 100.94749,192.40657 99.575659,155.4788 110.60061,124.98199 C 121.62557,94.485177 149.96479,86.319612 202.72757,82.724862 C 228.5665,80.964442 257.53959,91.992386 261.85149,101.6173 C 286.23836,102.5729 293.94064,112.364 301.12445,133.21765 z "
     style="opacity:1;fill:url(#linearGradient6414);fill-opacity:1;fill-rule:evenodd;stroke:none;stroke-width:3.02326512;stroke-linecap:round;stroke-linejoin:round;stroke-miterlimit:4;stroke-dasharray:none;stroke-dashoffset:0;stroke-opacity:0.86549707;display:inline" />
  <path
     style="fill:none;fill-rule:evenodd;stroke:#3d3c36;stroke-width:0.5;stroke-linecap:round;stroke-linejoin:round;stroke-miterlimit:4;stroke-dasharray:none;stroke-opacity:1"
     d="M 248.90982,121.54653 C 249.41574,113.31664 255.83999,106.93585 262.17594,101.59002"
     id="path2162"
     sodipodi:nodetypes="cc" />
</svg>
